<svg id="visual" viewBox="0 0 1920 120" width="1920" height="120" xmlns="http://www.w3.org/2000/svg" xmlns:xlink="http://www.w3.org/1999/xlink" version="1.1"><path d="M0 16L29.2 17.3C58.3 18.7 116.7 21.3 174.8 29.3C233 37.3 291 50.7 349.2 54.8C407.3 59 465.7 54 523.8 43.5C582 33 640 17 698.2 13.7C756.3 10.3 814.7 19.7 872.8 37.5C931 55.3 989 81.7 1047.2 95.3C1105.3 109 1163.7 110 1221.8 108.5C1280 107 1338 103 1396.2 90.5C1454.3 78 1512.7 57 1570.8 44.2C1629 31.3 1687 26.7 1745.2 22.2C1803.3 17.7 1861.7 13.3 1890.8 11.2L1920 9L1920 0L1890.8 0C1861.7 0 1803.3 0 1745.2 0C1687 0 1629 0 1570.8 0C1512.7 0 1454.3 0 1396.2 0C1338 0 1280 0 1221.8 0C1163.7 0 1105.3 0 1047.2 0C989 0 931 0 872.8 0C814.7 0 756.3 0 698.2 0C640 0 582 0 523.8 0C465.7 0 407.3 0 349.2 0C291 0 233 0 174.8 0C116.7 0 58.3 0 29.2 0L0 0Z" fill="#090D19" stroke-linecap="round" stroke-linejoin="miter"></path></svg>