<svg id="visual" viewBox="0 0 1920 120" width="1920" height="120" xmlns="http://www.w3.org/2000/svg" xmlns:xlink="http://www.w3.org/1999/xlink" version="1.1"><path d="M0 112L40 102.3C80 92.7 160 73.3 240 61.2C320 49 400 44 480 52.5C560 61 640 83 720 93.7C800 104.3 880 103.7 960 99.3C1040 95 1120 87 1200 74.2C1280 61.3 1360 43.7 1440 44C1520 44.3 1600 62.7 1680 68.7C1760 74.7 1840 68.3 1880 65.2L1920 62L1920 0L1880 0C1840 0 1760 0 1680 0C1600 0 1520 0 1440 0C1360 0 1280 0 1200 0C1120 0 1040 0 960 0C880 0 800 0 720 0C640 0 560 0 480 0C400 0 320 0 240 0C160 0 80 0 40 0L0 0Z" fill="#0C1427" stroke-linecap="round" stroke-linejoin="miter"></path></svg>