<svg id="visual" viewBox="0 0 1920 120" width="1920" height="120" xmlns="http://www.w3.org/2000/svg" xmlns:xlink="http://www.w3.org/1999/xlink" version="1.1"><path d="M0 87L53.3 92.2C106.7 97.3 213.3 107.7 320 94.2C426.7 80.7 533.3 43.3 640 26.5C746.7 9.7 853.3 13.3 960 26.5C1066.7 39.7 1173.3 62.3 1280 67.7C1386.7 73 1493.3 61 1600 54.2C1706.7 47.3 1813.3 45.7 1866.7 44.8L1920 44L1920 0L1866.7 0C1813.3 0 1706.7 0 1600 0C1493.3 0 1386.7 0 1280 0C1173.3 0 1066.7 0 960 0C853.3 0 746.7 0 640 0C533.3 0 426.7 0 320 0C213.3 0 106.7 0 53.3 0L0 0Z" fill="#090D19" stroke-linecap="round" stroke-linejoin="miter"></path></svg>