<svg id="visual" viewBox="0 0 1920 120" width="1920" height="120" xmlns="http://www.w3.org/2000/svg" xmlns:xlink="http://www.w3.org/1999/xlink" version="1.1"><path d="M0 84L64 75.3C128 66.7 256 49.3 384 50.2C512 51 640 70 768 81.8C896 93.7 1024 98.3 1152 87.3C1280 76.3 1408 49.7 1536 48.8C1664 48 1792 73 1856 85.5L1920 98L1920 0L1856 0C1792 0 1664 0 1536 0C1408 0 1280 0 1152 0C1024 0 896 0 768 0C640 0 512 0 384 0C256 0 128 0 64 0L0 0Z" fill="#52002D" stroke-linecap="round" stroke-linejoin="miter"></path></svg>